<mxfile host="app.diagrams.net" agent="Mozilla/5.0 (Windows NT 10.0; Win64; x64) AppleWebKit/537.36 (KHTML, like Gecko) Chrome/128.0.0.0 Safari/537.36 OPR/114.0.0.0" version="26.0.4">
  <diagram name="Page-1" id="uwxhVBQ8Uu2J-7rZ4Y4K">
    <mxGraphModel dx="1121" dy="563" grid="1" gridSize="10" guides="1" tooltips="1" connect="1" arrows="1" fold="1" page="1" pageScale="1" pageWidth="850" pageHeight="1100" math="0" shadow="0">
      <root>
        <mxCell id="0" />
        <mxCell id="1" parent="0" />
        <mxCell id="mpNihfgeMRPzyipiXMCh-1" value="" style="ellipse;whiteSpace=wrap;html=1;aspect=fixed;" vertex="1" parent="1">
          <mxGeometry x="313.75" y="200" width="170" height="170" as="geometry" />
        </mxCell>
        <mxCell id="mpNihfgeMRPzyipiXMCh-2" value="מערכת הזמנות אוכל בריא" style="text;html=1;align=center;verticalAlign=middle;whiteSpace=wrap;rounded=0;fontStyle=1;fontSize=16;" vertex="1" parent="1">
          <mxGeometry x="341.25" y="250" width="115" height="60" as="geometry" />
        </mxCell>
        <mxCell id="mpNihfgeMRPzyipiXMCh-3" value="" style="rounded=0;whiteSpace=wrap;html=1;" vertex="1" parent="1">
          <mxGeometry x="320" y="40" width="157.5" height="60" as="geometry" />
        </mxCell>
        <mxCell id="mpNihfgeMRPzyipiXMCh-4" value="לקוחות" style="text;html=1;align=center;verticalAlign=middle;whiteSpace=wrap;rounded=0;" vertex="1" parent="1">
          <mxGeometry x="362.5" y="52.5" width="85" height="35" as="geometry" />
        </mxCell>
        <mxCell id="mpNihfgeMRPzyipiXMCh-5" value="" style="endArrow=classic;html=1;rounded=0;entryX=0.291;entryY=0.985;entryDx=0;entryDy=0;entryPerimeter=0;" edge="1" parent="1" target="mpNihfgeMRPzyipiXMCh-3">
          <mxGeometry width="50" height="50" relative="1" as="geometry">
            <mxPoint x="367" y="200" as="sourcePoint" />
            <mxPoint x="450" y="250" as="targetPoint" />
          </mxGeometry>
        </mxCell>
        <mxCell id="mpNihfgeMRPzyipiXMCh-6" value="" style="endArrow=classic;html=1;rounded=0;exitX=0.75;exitY=1;exitDx=0;exitDy=0;entryX=0.732;entryY=0.059;entryDx=0;entryDy=0;entryPerimeter=0;" edge="1" parent="1" source="mpNihfgeMRPzyipiXMCh-3" target="mpNihfgeMRPzyipiXMCh-1">
          <mxGeometry width="50" height="50" relative="1" as="geometry">
            <mxPoint x="390" y="240" as="sourcePoint" />
            <mxPoint x="440" y="190" as="targetPoint" />
          </mxGeometry>
        </mxCell>
        <mxCell id="mpNihfgeMRPzyipiXMCh-7" value="נרשמים" style="text;html=1;align=center;verticalAlign=middle;whiteSpace=wrap;rounded=0;fontSize=10;" vertex="1" parent="1">
          <mxGeometry x="425" y="130" width="60" height="30" as="geometry" />
        </mxCell>
        <mxCell id="mpNihfgeMRPzyipiXMCh-8" value="&lt;font style=&quot;font-size: 7px;&quot;&gt;שליחת הזמנה&lt;/font&gt;" style="text;html=1;align=center;verticalAlign=middle;whiteSpace=wrap;rounded=0;fontSize=10;" vertex="1" parent="1">
          <mxGeometry x="367.5" y="160" width="27.5" height="10" as="geometry" />
        </mxCell>
        <mxCell id="mpNihfgeMRPzyipiXMCh-9" value="" style="rounded=0;whiteSpace=wrap;html=1;" vertex="1" parent="1">
          <mxGeometry x="317.5" y="480" width="130" height="60" as="geometry" />
        </mxCell>
        <mxCell id="mpNihfgeMRPzyipiXMCh-10" value="עובד" style="text;html=1;align=center;verticalAlign=middle;whiteSpace=wrap;rounded=0;" vertex="1" parent="1">
          <mxGeometry x="352.5" y="495" width="60" height="30" as="geometry" />
        </mxCell>
        <mxCell id="mpNihfgeMRPzyipiXMCh-11" value="" style="endArrow=classic;html=1;rounded=0;entryX=0.692;entryY=0.998;entryDx=0;entryDy=0;entryPerimeter=0;exitX=0.682;exitY=0.031;exitDx=0;exitDy=0;exitPerimeter=0;" edge="1" parent="1" source="mpNihfgeMRPzyipiXMCh-1" target="mpNihfgeMRPzyipiXMCh-3">
          <mxGeometry width="50" height="50" relative="1" as="geometry">
            <mxPoint x="390" y="220" as="sourcePoint" />
            <mxPoint x="440" y="170" as="targetPoint" />
          </mxGeometry>
        </mxCell>
        <mxCell id="mpNihfgeMRPzyipiXMCh-12" value="&lt;font style=&quot;font-size: 7px;&quot;&gt;הצעות&lt;/font&gt;" style="text;html=1;align=center;verticalAlign=middle;whiteSpace=wrap;rounded=0;" vertex="1" parent="1">
          <mxGeometry x="387.5" y="130" width="60" height="30" as="geometry" />
        </mxCell>
        <mxCell id="mpNihfgeMRPzyipiXMCh-13" value="" style="endArrow=classic;html=1;rounded=0;exitX=0.5;exitY=1;exitDx=0;exitDy=0;entryX=0.5;entryY=0;entryDx=0;entryDy=0;" edge="1" parent="1" source="mpNihfgeMRPzyipiXMCh-3" target="mpNihfgeMRPzyipiXMCh-1">
          <mxGeometry width="50" height="50" relative="1" as="geometry">
            <mxPoint x="390" y="220" as="sourcePoint" />
            <mxPoint x="440" y="170" as="targetPoint" />
          </mxGeometry>
        </mxCell>
        <mxCell id="mpNihfgeMRPzyipiXMCh-14" value="&lt;font style=&quot;font-size: 8px;&quot;&gt;העדפות&lt;/font&gt;" style="text;html=1;align=center;verticalAlign=middle;whiteSpace=wrap;rounded=0;" vertex="1" parent="1">
          <mxGeometry x="367.5" y="120" width="40" height="20" as="geometry" />
        </mxCell>
        <mxCell id="mpNihfgeMRPzyipiXMCh-15" value="" style="endArrow=classic;html=1;rounded=0;exitX=0.18;exitY=1.031;exitDx=0;exitDy=0;exitPerimeter=0;" edge="1" parent="1" source="mpNihfgeMRPzyipiXMCh-3">
          <mxGeometry width="50" height="50" relative="1" as="geometry">
            <mxPoint x="380" y="210" as="sourcePoint" />
            <mxPoint x="350" y="190" as="targetPoint" />
          </mxGeometry>
        </mxCell>
        <mxCell id="mpNihfgeMRPzyipiXMCh-18" value="&lt;span style=&quot;font-size: 7px;&quot;&gt;בקשת הזמנה&lt;/span&gt;" style="text;html=1;align=center;verticalAlign=middle;whiteSpace=wrap;rounded=0;" vertex="1" parent="1">
          <mxGeometry x="330" y="135" width="20" height="20" as="geometry" />
        </mxCell>
        <mxCell id="mpNihfgeMRPzyipiXMCh-19" value="" style="endArrow=classic;startArrow=classic;html=1;rounded=0;entryX=0.743;entryY=0.944;entryDx=0;entryDy=0;entryPerimeter=0;exitX=0.946;exitY=-0.044;exitDx=0;exitDy=0;exitPerimeter=0;" edge="1" parent="1" source="mpNihfgeMRPzyipiXMCh-9" target="mpNihfgeMRPzyipiXMCh-1">
          <mxGeometry width="50" height="50" relative="1" as="geometry">
            <mxPoint x="480" y="470" as="sourcePoint" />
            <mxPoint x="530" y="420" as="targetPoint" />
          </mxGeometry>
        </mxCell>
        <mxCell id="mpNihfgeMRPzyipiXMCh-20" value="&lt;font style=&quot;font-size: 7px;&quot;&gt;משלוח&lt;/font&gt;" style="text;html=1;align=center;verticalAlign=middle;whiteSpace=wrap;rounded=0;" vertex="1" parent="1">
          <mxGeometry x="423.75" y="400" width="60" height="30" as="geometry" />
        </mxCell>
      </root>
    </mxGraphModel>
  </diagram>
</mxfile>
